<svg width="23" height="23" viewBox="0 0 23 23" fill="none" xmlns="http://www.w3.org/2000/svg">
                        <circle cx="11.5385" cy="11.9236" r="11.0769" fill="#F4F4F4"></circle>
                        <path d="M14.8876 14.0075C14.8876 14.6544 15.0612 14.9124 15.5153 14.9124C16.5273 14.9124 17.1717 13.5453 17.1717 11.2717C17.1717 7.79662 14.783 6.13301 11.8007 6.13301C8.73272 6.13301 5.94225 8.31419 5.94225 12.4363C5.94225 16.3735 8.38328 18.5177 12.132 18.5177C13.4048 18.5177 14.2592 18.3698 15.5661 17.9077L15.8466 19.1454C14.5563 19.5898 13.1774 19.7185 12.1146 19.7185C7.19763 19.7185 4.56409 16.8533 4.56409 12.4355C4.56409 7.9807 7.6161 4.94922 11.8181 4.94922C16.1946 4.94922 18.5128 7.72192 18.5128 11.1231C18.5128 14.0067 17.6592 16.2064 14.974 16.2064C13.7528 16.2064 12.9515 15.6888 12.8469 14.542C12.533 15.8174 11.6961 16.2064 10.562 16.2064C9.04511 16.2064 7.77229 14.9671 7.77229 12.4725C7.77229 9.95856 8.88892 8.40585 10.894 8.40585C11.9576 8.40585 12.6202 8.84948 12.9152 9.5519L13.4215 8.57221H14.8861V14.0075H14.8876ZM12.7437 11.5675C12.7437 10.5516 12.0281 10.1257 11.4353 10.1257C10.7902 10.1257 10.076 10.6795 10.076 12.3069C10.076 13.6008 10.6165 14.3217 11.4353 14.3217C12.0107 14.3217 12.7437 13.9335 12.7437 12.8614V11.5675Z" fill="#565656"></path>
                    </svg>