<svg width="32" height="32" viewBox="0 0 32 32" fill="none" xmlns="http://www.w3.org/2000/svg">
                                <circle cx="16.3832" cy="16.0767" r="15.6168" fill="#7C7C7C"></circle>
                                <path d="M21.105 19.0149C21.105 19.927 21.3498 20.2908 21.99 20.2908C23.4168 20.2908 24.3253 18.3634 24.3253 15.1579C24.3253 10.2585 20.9575 7.9131 16.753 7.9131C12.4276 7.9131 8.49347 10.9882 8.49347 16.7997C8.49347 22.3506 11.9349 25.3736 17.2201 25.3736C19.0146 25.3736 20.2191 25.1652 22.0617 24.5137L22.457 26.2586C20.638 26.8852 18.694 27.0665 17.1955 27.0665C10.2634 27.0665 6.55048 23.0271 6.55048 16.7987C6.55048 10.5181 10.8533 6.24414 16.7776 6.24414C22.9477 6.24414 26.216 10.1532 26.216 14.9484C26.216 19.0138 25.0125 22.115 21.2269 22.115C19.5052 22.115 18.3754 21.3853 18.2279 19.7685C17.7855 21.5666 16.6055 22.115 15.0067 22.115C12.868 22.115 11.0736 20.3679 11.0736 16.8508C11.0736 13.3065 12.6478 11.1175 15.4747 11.1175C16.9742 11.1175 17.9084 11.7429 18.3242 12.7332L19.0381 11.352H21.103V19.0149H21.105ZM18.0825 15.5749C18.0825 14.1426 17.0736 13.5422 16.2378 13.5422C15.3283 13.5422 14.3214 14.3229 14.3214 16.6173C14.3214 18.4415 15.0835 19.4579 16.2378 19.4579C17.049 19.4579 18.0825 18.9106 18.0825 17.3991V15.5749Z" fill="#F9F9F9"></path></svg>