<svg width="42" height="42" viewBox="0 0 42 42" fill="none" xmlns="http://www.w3.org/2000/svg">
<g clip-path="url(#clip0_80_503)">
<path d="M32.3401 34.8658C33.7681 34.8658 34.8601 35.945 34.8601 37.3562C34.8601 38.7675 33.7681 39.8466 32.3401 39.8466C30.9121 39.8466 29.8201 38.7675 29.8201 37.3562C29.8201 35.945 30.9961 34.8658 32.3401 34.8658ZM32.3401 33.2056C29.9881 33.2056 28.1401 35.0319 28.1401 37.3562C28.1401 39.6806 29.9881 41.5069 32.3401 41.5069C34.6921 41.5069 36.5401 39.6806 36.5401 37.3562C36.5401 35.0319 34.6921 33.2056 32.3401 33.2056Z" fill="#FD9800"/>
<path d="M34.6921 16.1877H25.6201V35.696H26.7121C27.4681 33.2886 29.6521 31.5453 32.3401 31.5453C35.0281 31.5453 37.2121 33.2886 37.9681 35.696H42.0001V24.1571L34.6921 16.1877ZM29.8201 24.1571V17.848H33.5161L39.0601 24.1571H29.8201Z" fill="#FD9800"/>
<path d="M11.6761 34.8658C13.1041 34.8658 14.1961 35.945 14.1961 37.3562C14.1961 38.7675 13.1041 39.8466 11.6761 39.8466C10.2481 39.8466 9.15607 38.7675 9.15607 37.3562C9.15607 35.945 10.3321 34.8658 11.6761 34.8658ZM11.6761 33.2056C9.32407 33.2056 7.47607 35.0319 7.47607 37.3562C7.47607 39.6806 9.32407 41.5069 11.6761 41.5069C14.0281 41.5069 15.8761 39.6806 15.8761 37.3562C15.8761 35.0319 14.0281 33.2056 11.6761 33.2056Z" fill="#FD9800"/>
<path d="M23.94 24.157H0V35.696H6.048C6.804 33.2886 8.988 31.5453 11.676 31.5453C14.364 31.5453 16.548 33.2886 17.304 35.696H23.94V24.157Z" fill="#FD9800"/>
<path d="M22.2598 17.765V20.7535H18.7318V17.765H22.2598ZM23.9398 16.1047H17.0518V22.4138H23.9398V16.1047Z" fill="#FD9800"/>
<path d="M13.6919 1.66027V4.64875H10.1639V1.66027H13.6919ZM15.3719 0H8.48389V6.30902H15.3719V0Z" fill="#FD9800"/>
<path d="M13.6919 9.71276V12.7012H10.1639V9.71276H13.6919ZM15.3719 8.05249H8.48389V14.3615H15.3719V8.05249Z" fill="#FD9800"/>
<path d="M22.2598 9.71276V12.7012H18.7318V9.71276H22.2598ZM23.9398 8.05249H17.0518V14.3615H23.9398V8.05249Z" fill="#FD9800"/>
<path d="M13.6919 17.765V20.7535H10.1639V17.765H13.6919ZM15.3719 16.1047H8.48389V22.4138H15.3719V16.1047Z" fill="#FD9800"/>
<path d="M22.2598 1.66027V4.64875H18.7318V1.66027H22.2598ZM23.9398 0H17.0518V6.30902H23.9398V0Z" fill="#FD9800"/>
<path d="M5.124 17.765V20.7535H1.68V17.765H5.124ZM6.804 16.1047H0V22.4138H6.804V16.1047Z" fill="#FD9800"/>
<path d="M5.124 9.71276V12.7012H1.68V9.71276H5.124ZM6.804 8.05249H0V14.3615H6.804V8.05249Z" fill="#FD9800"/>
<path d="M5.124 1.66027V4.64875H1.68V1.66027H5.124ZM6.804 0H0V6.30902H6.804V0Z" fill="#FD9800"/>
</g>
<defs>
<clipPath id="clip0_80_503">
<rect width="42" height="42" fill="white"/>
</clipPath>
</defs>
</svg>
