<svg width="42" height="42" viewBox="0 0 42 42" fill="none" xmlns="http://www.w3.org/2000/svg">
<g clip-path="url(#clip0_80_489)">
<path d="M33.7681 28.6396C33.8521 28.7226 33.9361 28.8057 34.0201 28.8887C34.4401 29.3037 34.9441 29.5528 35.5321 29.6358C35.5321 29.9679 35.7001 30.2999 35.8681 30.5489C36.0361 30.881 36.2881 31.13 36.5401 31.2961C36.3721 31.6281 36.2881 31.9602 36.2881 32.2922C36.2881 32.6243 36.3721 32.9564 36.5401 33.2884C36.2881 33.4544 36.0361 33.7865 35.8681 34.0355C35.7001 34.3676 35.6161 34.6166 35.5321 34.9487C34.9441 35.0317 34.4401 35.2807 34.0201 35.6958C33.9361 35.7788 33.8521 35.8618 33.7681 35.9449C33.4321 35.7788 33.0961 35.6958 32.7601 35.6958C32.4241 35.6958 32.0881 35.7788 31.7521 35.9449C31.6681 35.8618 31.5841 35.7788 31.5001 35.6958C31.0801 35.2807 30.5761 35.0317 29.9881 34.9487C29.9881 34.6166 29.8201 34.2846 29.6521 34.0355C29.4841 33.7035 29.2321 33.4544 28.9801 33.2884C29.1481 32.9564 29.2321 32.6243 29.2321 32.2922C29.2321 31.9602 29.1481 31.6281 28.9801 31.2961C29.2321 31.13 29.4841 30.798 29.6521 30.5489C29.8201 30.2169 29.9041 29.9679 29.9881 29.6358C30.5761 29.5528 31.0801 29.3037 31.5001 28.8887C31.5841 28.8057 31.6681 28.7226 31.7521 28.6396C32.0881 28.8057 32.4241 28.8887 32.7601 28.8887C33.0961 28.8887 33.4321 28.8057 33.7681 28.6396ZM34.1881 26.3982C33.9361 26.3982 33.6841 26.5643 33.5161 26.8133C33.3481 27.0624 33.0961 27.2284 32.8441 27.2284C32.5921 27.2284 32.2561 27.0624 32.1721 26.8133C32.0041 26.5643 31.7521 26.3982 31.5001 26.3982C31.0801 26.3982 30.6601 26.7303 30.6601 27.2284C30.6601 27.7265 30.2401 28.0585 29.8201 28.0585C29.6521 28.0585 29.5681 28.0585 29.4001 27.9755C29.2321 27.8925 29.1481 27.8925 28.9801 27.8925C28.3921 27.8925 27.9721 28.5566 28.3081 29.1377C28.6441 29.6358 28.2241 30.2999 27.6361 30.2999C26.7961 30.2999 26.5441 31.3791 27.2161 31.7942C27.8041 32.1262 27.8041 32.8733 27.2161 33.2054C26.4601 33.6205 26.7961 34.6996 27.6361 34.6996C28.2241 34.6996 28.6441 35.3638 28.3081 35.8618C27.9721 36.4429 28.3921 37.1071 28.9801 37.1071C29.1481 37.1071 29.2321 37.1071 29.4001 37.024C29.5681 36.941 29.6521 36.941 29.8201 36.941C30.2401 36.941 30.6601 37.2731 30.6601 37.7712C30.6601 38.2693 31.0801 38.6013 31.5001 38.6013C31.7521 38.6013 32.0041 38.4353 32.1721 38.1862C32.3401 37.9372 32.5921 37.7712 32.8441 37.7712C33.0961 37.7712 33.4321 37.9372 33.5161 38.1862C33.6841 38.4353 33.9361 38.6013 34.1881 38.6013C34.6081 38.6013 35.0281 38.2693 35.0281 37.7712C35.0281 37.2731 35.4481 36.941 35.8681 36.941C36.0361 36.941 36.1201 36.941 36.2881 37.024C36.4561 37.1071 36.5401 37.1071 36.7081 37.1071C37.2961 37.1071 37.7161 36.4429 37.3801 35.8618C37.0441 35.3638 37.4641 34.6996 38.0521 34.6996C38.8921 34.6996 39.1441 33.6205 38.4721 33.2054C37.8841 32.8733 37.8841 32.1262 38.4721 31.7942C39.2281 31.3791 38.8921 30.2999 38.0521 30.2999C37.4641 30.2999 37.0441 29.6358 37.3801 29.1377C37.7161 28.5566 37.2961 27.8925 36.7081 27.8925C36.5401 27.8925 36.4561 27.8925 36.2881 27.9755C36.1201 28.0585 36.0361 28.0585 35.8681 28.0585C35.4481 28.0585 35.0281 27.7265 35.0281 27.2284C34.9441 26.7303 34.6081 26.3982 34.1881 26.3982Z" fill="#FD9800"/>
<path d="M30.828 4.15063H5.04004V5.8109H30.828V4.15063Z" fill="#FD9800"/>
<path d="M30.828 7.47119H5.04004V9.13144H30.828V7.47119Z" fill="#FD9800"/>
<path d="M30.828 10.7917H5.04004V12.452H30.828V10.7917Z" fill="#FD9800"/>
<path d="M30.828 14.1123H5.04004V15.7726H30.828V14.1123Z" fill="#FD9800"/>
<path d="M30.828 17.4329H5.04004V19.0932H30.828V17.4329Z" fill="#FD9800"/>
<path d="M21.168 20.7534H5.04004V22.4137H21.168V20.7534Z" fill="#FD9800"/>
<path d="M32.76 24.9042C36.96 24.9042 40.32 28.2248 40.32 32.3755C40.32 36.5262 36.96 39.8467 32.76 39.8467C28.56 39.8467 25.2 36.5262 25.2 32.3755C25.2 28.2248 28.56 24.9042 32.76 24.9042ZM32.76 23.2439C27.636 23.2439 23.52 27.3116 23.52 32.3755C23.52 37.4393 27.636 41.507 32.76 41.507C37.884 41.507 42 37.4393 42 32.3755C42 27.3116 37.884 23.2439 32.76 23.2439Z" fill="#FD9800"/>
<path d="M21.168 34.8658H2.52C2.1 34.8658 1.68 34.4507 1.68 34.0357V2.49042C1.68 2.07535 2.1 1.66028 2.52 1.66028H33.348C33.768 1.66028 34.188 2.07535 34.188 2.49042V20.7535H35.868V2.49042C35.868 1.07918 34.776 0 33.348 0H2.52C1.092 0 0 1.07918 0 2.49042V34.0357C0 35.3639 1.092 36.5261 2.52 36.5261H21.168V34.8658Z" fill="#FD9800"/>
<path d="M9.74404 33.5376L5.04004 28.8888L6.80404 27.1455L9.74404 30.051L15.54 24.323L17.304 26.1493L9.74404 33.5376Z" fill="#FD9800"/>
</g>
<defs>
<clipPath id="clip0_80_489">
<rect width="42" height="42" fill="white"/>
</clipPath>
</defs>
</svg>
