<svg width="42" height="42" viewBox="0 0 42 42" fill="none" xmlns="http://www.w3.org/2000/svg">
<g clip-path="url(#clip0_80_500)">
<path d="M20.6 9C13.628 9 8 14.5619 8 21.4521C8 28.3422 13.628 33.9041 20.6 33.9041C27.572 33.9041 33.2 28.3422 33.2 21.4521C33.2 14.5619 27.572 9 20.6 9ZM24.716 27.3461C23.624 28.2592 22.28 28.7573 20.6 28.7573C19.172 28.7573 17.912 28.3422 16.82 27.5951C15.728 26.848 15.14 25.7688 14.888 24.4406L18.5 24.0255C18.752 25.0217 19.424 25.5197 20.432 25.5197C20.936 25.5197 21.356 25.3537 21.692 25.0217C22.028 24.6896 22.112 24.2745 22.112 23.8595C22.112 23.3614 21.944 22.9463 21.608 22.6143C21.272 22.2822 20.852 22.1992 20.348 22.1992C19.676 22.1992 19.088 22.5313 18.668 23.1123L15.476 22.6973L16.064 14.728H25.472L25.136 18.1315H19.256L19.088 20.1239C19.844 19.6258 20.684 19.3767 21.608 19.3767C22.868 19.3767 23.876 19.7918 24.8 20.6219C25.724 21.4521 26.144 22.5313 26.144 23.9425C26.312 25.2707 25.724 26.4329 24.716 27.3461Z" fill="#FD9800"/>
<path d="M21 41C32.0457 41 41 32.0457 41 21C41 9.9543 32.0457 1 21 1C9.9543 1 1 9.9543 1 21C1 32.0457 9.9543 41 21 41Z" stroke="#FD9800" stroke-width="2"/>
</g>
<defs>
<clipPath id="clip0_80_500">
<rect width="42" height="42" fill="white"/>
</clipPath>
</defs>
</svg>
