<svg width="43" height="42" viewBox="0 0 43 42" fill="none" xmlns="http://www.w3.org/2000/svg">
<g clip-path="url(#clip0_80_517)">
<path d="M21.0024 0C13.6944 0 7.81445 5.81097 7.81445 13.0332C7.81445 20.2554 13.6944 26.0663 21.0024 26.0663C28.3104 26.0663 34.1904 20.2554 34.1904 13.0332C34.1904 5.81097 28.3104 0 21.0024 0ZM21.0024 22.0817C15.9624 22.0817 11.8464 18.014 11.8464 13.0332C11.8464 8.05234 15.9624 4.06768 21.0024 4.06768C26.0424 4.06768 30.1584 8.13536 30.1584 13.1162C30.1584 18.014 26.0424 22.0817 21.0024 22.0817Z" fill="#FD9800"/>
<path d="M21.0023 11.4558C20.1623 11.4558 19.4062 12.1199 19.4062 13.0331C19.4062 13.8632 20.0783 14.6104 21.0023 14.6104C21.9263 14.6104 22.5983 13.9462 22.5983 13.0331C22.5983 12.2029 21.8423 11.4558 21.0023 11.4558Z" fill="#FD9800"/>
<path d="M21.0022 8.13537C23.6902 8.13537 25.9582 10.2937 25.9582 13.0332C25.9582 15.7726 23.7742 17.931 21.0022 17.931C18.2302 17.931 16.0462 15.7726 16.0462 13.0332C16.0462 10.2937 18.3142 8.13537 21.0022 8.13537ZM21.0022 6.4751C17.3062 6.4751 14.3662 9.38057 14.3662 13.0332C14.3662 16.6858 17.3062 19.5912 21.0022 19.5912C24.6982 19.5912 27.6382 16.6858 27.6382 13.0332C27.6382 9.38057 24.6982 6.4751 21.0022 6.4751Z" fill="#FD9800"/>
<path d="M35.4503 21.4177C40.3223 25.0703 40.3223 29.387 40.3223 37.2734V38.5186C40.3223 39.2657 40.2383 39.5977 40.1543 39.6808C40.0703 39.6808 39.9863 39.6808 39.8183 39.6808C38.9783 39.6808 37.5503 39.3487 35.8703 38.8506C32.3423 37.9375 27.5543 36.7753 21.0023 36.7753C14.5343 36.7753 9.66229 38.0205 6.13429 38.8506C4.45429 39.2657 3.02629 39.6808 2.18629 39.6808C2.01829 39.6808 1.85029 39.6808 1.85029 39.6808C1.76629 39.5977 1.68229 39.3487 1.68229 38.5186V37.2734C1.68229 29.387 1.68229 25.1533 6.55429 21.4177C9.57829 26.4815 15.0383 29.6361 21.0023 29.6361C26.9663 29.6361 32.5103 26.4815 35.4503 21.4177ZM34.8623 19.0103C32.5103 24.3232 27.2183 27.9758 21.0023 27.9758C14.7863 27.9758 9.49429 24.3232 7.14229 19.0103C-0.333714 23.5761 0.00228546 29.138 0.00228546 38.5186C0.00228546 40.6769 0.674286 41.4241 2.18629 41.4241C5.12629 41.4241 11.2583 38.5186 21.0023 38.5186C30.7463 38.5186 36.7943 41.4241 39.8183 41.4241C41.3303 41.4241 42.0023 40.6769 42.0023 38.5186C42.0023 29.138 42.3383 23.5761 34.8623 19.0103Z" fill="#FD9800"/>
</g>
<defs>
<clipPath id="clip0_80_517">
<rect width="43" height="42" fill="white"/>
</clipPath>
</defs>
</svg>
