<svg width="43" height="42" viewBox="0 0 43 42" fill="none" xmlns="http://www.w3.org/2000/svg">
<path d="M21.0023 0C13.6943 0 7.81433 5.81097 7.81433 13.0332C7.81433 20.2554 13.6943 26.0663 21.0023 26.0663C28.3103 26.0663 34.1903 20.2554 34.1903 13.0332C34.1903 5.81097 28.3103 0 21.0023 0ZM21.0023 22.0817C15.9623 22.0817 11.8463 18.014 11.8463 13.0332C11.8463 8.05234 15.9623 4.06768 21.0023 4.06768C26.0423 4.06768 30.1583 8.13536 30.1583 13.1162C30.1583 18.014 26.0423 22.0817 21.0023 22.0817Z" fill="#0374DF"/>
<path d="M21.0023 11.4559C20.1623 11.4559 19.4063 12.12 19.4063 13.0332C19.4063 13.8633 20.0783 14.6105 21.0023 14.6105C21.9263 14.6105 22.5983 13.9463 22.5983 13.0332C22.5983 12.203 21.8423 11.4559 21.0023 11.4559Z" fill="#0374DF"/>
<path d="M21.0023 8.13537C23.6903 8.13537 25.9583 10.2937 25.9583 13.0332C25.9583 15.7726 23.7743 17.931 21.0023 17.931C18.2303 17.931 16.0463 15.7726 16.0463 13.0332C16.0463 10.2937 18.3143 8.13537 21.0023 8.13537ZM21.0023 6.4751C17.3063 6.4751 14.3663 9.38057 14.3663 13.0332C14.3663 16.6858 17.3063 19.5912 21.0023 19.5912C24.6983 19.5912 27.6383 16.6858 27.6383 13.0332C27.6383 9.38057 24.6983 6.4751 21.0023 6.4751Z" fill="#0374DF"/>
<path d="M35.4503 21.4176C40.3223 25.0702 40.3223 29.3869 40.3223 37.2733V38.5185C40.3223 39.2656 40.2383 39.5976 40.1543 39.6807C40.0703 39.6807 39.9863 39.6807 39.8183 39.6807C38.9783 39.6807 37.5503 39.3486 35.8703 38.8505C32.3423 37.9374 27.5543 36.7752 21.0023 36.7752C14.5343 36.7752 9.66229 38.0204 6.13429 38.8505C4.45429 39.2656 3.02629 39.6807 2.18629 39.6807C2.01829 39.6807 1.85029 39.6807 1.85029 39.6807C1.76629 39.5976 1.68229 39.3486 1.68229 38.5185V37.2733C1.68229 29.3869 1.68229 25.1532 6.55429 21.4176C9.57829 26.4814 15.0383 29.636 21.0023 29.636C26.9663 29.636 32.5103 26.4814 35.4503 21.4176ZM34.8623 19.0102C32.5103 24.3231 27.2183 27.9757 21.0023 27.9757C14.7863 27.9757 9.49429 24.3231 7.14229 19.0102C-0.333714 23.576 0.00228547 29.1379 0.00228547 38.5185C0.00228547 40.6768 0.674286 41.424 2.18629 41.424C5.12629 41.424 11.2583 38.5185 21.0023 38.5185C30.7463 38.5185 36.7943 41.424 39.8183 41.424C41.3303 41.424 42.0023 40.6768 42.0023 38.5185C42.0023 29.1379 42.3383 23.576 34.8623 19.0102Z" fill="#0374DF"/>
</svg>
