<svg width="42" height="42" viewBox="0 0 42 42" fill="none" xmlns="http://www.w3.org/2000/svg">
<path d="M33.768 28.6397C33.852 28.7227 33.936 28.8058 34.02 28.8888C34.44 29.3038 34.944 29.5529 35.532 29.6359C35.532 29.968 35.7 30.3 35.868 30.549C36.036 30.8811 36.288 31.1301 36.54 31.2962C36.372 31.6282 36.288 31.9603 36.288 32.2923C36.288 32.6244 36.372 32.9565 36.54 33.2885C36.288 33.4545 36.036 33.7866 35.868 34.0356C35.7 34.3677 35.616 34.6167 35.532 34.9488C34.944 35.0318 34.44 35.2808 34.02 35.6959C33.936 35.7789 33.852 35.8619 33.768 35.945C33.432 35.7789 33.096 35.6959 32.76 35.6959C32.424 35.6959 32.088 35.7789 31.752 35.945C31.668 35.8619 31.584 35.7789 31.5 35.6959C31.08 35.2808 30.576 35.0318 29.988 34.9488C29.988 34.6167 29.82 34.2847 29.652 34.0356C29.484 33.7036 29.232 33.4545 28.98 33.2885C29.148 32.9565 29.232 32.6244 29.232 32.2923C29.232 31.9603 29.148 31.6282 28.98 31.2962C29.232 31.1301 29.484 30.7981 29.652 30.549C29.82 30.217 29.904 29.968 29.988 29.6359C30.576 29.5529 31.08 29.3038 31.5 28.8888C31.584 28.8058 31.668 28.7227 31.752 28.6397C32.088 28.8058 32.424 28.8888 32.76 28.8888C33.096 28.8888 33.432 28.8058 33.768 28.6397ZM34.188 26.3983C33.936 26.3983 33.684 26.5644 33.516 26.8134C33.348 27.0625 33.096 27.2285 32.844 27.2285C32.592 27.2285 32.256 27.0625 32.172 26.8134C32.004 26.5644 31.752 26.3983 31.5 26.3983C31.08 26.3983 30.66 26.7304 30.66 27.2285C30.66 27.7266 30.24 28.0586 29.82 28.0586C29.652 28.0586 29.568 28.0586 29.4 27.9756C29.232 27.8926 29.148 27.8926 28.98 27.8926C28.392 27.8926 27.972 28.5567 28.308 29.1378C28.644 29.6359 28.224 30.3 27.636 30.3C26.796 30.3 26.544 31.3792 27.216 31.7943C27.804 32.1263 27.804 32.8734 27.216 33.2055C26.46 33.6206 26.796 34.6997 27.636 34.6997C28.224 34.6997 28.644 35.3639 28.308 35.8619C27.972 36.443 28.392 37.1072 28.98 37.1072C29.148 37.1072 29.232 37.1072 29.4 37.0241C29.568 36.9411 29.652 36.9411 29.82 36.9411C30.24 36.9411 30.66 37.2732 30.66 37.7713C30.66 38.2694 31.08 38.6014 31.5 38.6014C31.752 38.6014 32.004 38.4354 32.172 38.1863C32.34 37.9373 32.592 37.7713 32.844 37.7713C33.096 37.7713 33.432 37.9373 33.516 38.1863C33.684 38.4354 33.936 38.6014 34.188 38.6014C34.608 38.6014 35.028 38.2694 35.028 37.7713C35.028 37.2732 35.448 36.9411 35.868 36.9411C36.036 36.9411 36.12 36.9411 36.288 37.0241C36.456 37.1072 36.54 37.1072 36.708 37.1072C37.296 37.1072 37.716 36.443 37.38 35.8619C37.044 35.3639 37.464 34.6997 38.052 34.6997C38.892 34.6997 39.144 33.6206 38.472 33.2055C37.884 32.8734 37.884 32.1263 38.472 31.7943C39.228 31.3792 38.892 30.3 38.052 30.3C37.464 30.3 37.044 29.6359 37.38 29.1378C37.716 28.5567 37.296 27.8926 36.708 27.8926C36.54 27.8926 36.456 27.8926 36.288 27.9756C36.12 28.0586 36.036 28.0586 35.868 28.0586C35.448 28.0586 35.028 27.7266 35.028 27.2285C34.944 26.7304 34.608 26.3983 34.188 26.3983Z" fill="#0374DF"/>
<path d="M30.828 4.1507H5.04001V5.81097H30.828V4.1507Z" fill="#0374DF"/>
<path d="M30.828 7.47125H5.04001V9.1315H30.828V7.47125Z" fill="#0374DF"/>
<path d="M30.828 10.7918H5.04001V12.4521H30.828V10.7918Z" fill="#0374DF"/>
<path d="M30.828 14.1123H5.04001V15.7726H30.828V14.1123Z" fill="#0374DF"/>
<path d="M30.828 17.4329H5.04001V19.0932H30.828V17.4329Z" fill="#0374DF"/>
<path d="M21.168 20.7534H5.04001V22.4137H21.168V20.7534Z" fill="#0374DF"/>
<path d="M32.76 24.9041C36.96 24.9041 40.32 28.2247 40.32 32.3754C40.32 36.5261 36.96 39.8466 32.76 39.8466C28.56 39.8466 25.2 36.5261 25.2 32.3754C25.2 28.2247 28.56 24.9041 32.76 24.9041ZM32.76 23.2438C27.636 23.2438 23.52 27.3115 23.52 32.3754C23.52 37.4392 27.636 41.5069 32.76 41.5069C37.884 41.5069 42 37.4392 42 32.3754C42 27.3115 37.884 23.2438 32.76 23.2438Z" fill="#0374DF"/>
<path d="M21.168 34.8658H2.52C2.1 34.8658 1.68 34.4507 1.68 34.0357V2.49042C1.68 2.07535 2.1 1.66028 2.52 1.66028H33.348C33.768 1.66028 34.188 2.07535 34.188 2.49042V20.7535H35.868V2.49042C35.868 1.07918 34.776 0 33.348 0H2.52C1.092 0 0 1.07918 0 2.49042V34.0357C0 35.3639 1.092 36.5261 2.52 36.5261H21.168V34.8658Z" fill="#0374DF"/>
<path d="M9.74401 33.5376L5.04001 28.8888L6.80401 27.1455L9.74401 30.051L15.54 24.323L17.304 26.1493L9.74401 33.5376Z" fill="#0374DF"/>
</svg>
