<svg width="42" height="42" viewBox="0 0 42 42" fill="none" xmlns="http://www.w3.org/2000/svg">
<path d="M32.34 34.8658C33.768 34.8658 34.86 35.945 34.86 37.3562C34.86 38.7675 33.768 39.8466 32.34 39.8466C30.912 39.8466 29.82 38.7675 29.82 37.3562C29.82 35.945 30.996 34.8658 32.34 34.8658ZM32.34 33.2056C29.988 33.2056 28.14 35.0319 28.14 37.3562C28.14 39.6806 29.988 41.5069 32.34 41.5069C34.692 41.5069 36.54 39.6806 36.54 37.3562C36.54 35.0319 34.692 33.2056 32.34 33.2056Z" fill="#0374DF"/>
<path d="M34.692 16.1877H25.62V35.696H26.712C27.468 33.2886 29.652 31.5453 32.34 31.5453C35.028 31.5453 37.212 33.2886 37.968 35.696H42V24.1571L34.692 16.1877ZM29.82 24.1571V17.848H33.516L39.06 24.1571H29.82Z" fill="#0374DF"/>
<path d="M11.676 34.8658C13.104 34.8658 14.196 35.945 14.196 37.3562C14.196 38.7675 13.104 39.8466 11.676 39.8466C10.248 39.8466 9.15601 38.7675 9.15601 37.3562C9.15601 35.945 10.332 34.8658 11.676 34.8658ZM11.676 33.2056C9.32401 33.2056 7.47601 35.0319 7.47601 37.3562C7.47601 39.6806 9.32401 41.5069 11.676 41.5069C14.028 41.5069 15.876 39.6806 15.876 37.3562C15.876 35.0319 14.028 33.2056 11.676 33.2056Z" fill="#0374DF"/>
<path d="M23.94 24.157H0V35.696H6.048C6.804 33.2886 8.988 31.5453 11.676 31.5453C14.364 31.5453 16.548 33.2886 17.304 35.696H23.94V24.157Z" fill="#0374DF"/>
<path d="M22.26 17.765V20.7535H18.732V17.765H22.26ZM23.94 16.1047H17.052V22.4138H23.94V16.1047Z" fill="#0374DF"/>
<path d="M13.692 1.66027V4.64875H10.164V1.66027H13.692ZM15.372 0H8.48401V6.30902H15.372V0Z" fill="#0374DF"/>
<path d="M13.692 9.71264V12.7011H10.164V9.71264H13.692ZM15.372 8.05237H8.48401V14.3614H15.372V8.05237Z" fill="#0374DF"/>
<path d="M22.26 9.71264V12.7011H18.732V9.71264H22.26ZM23.94 8.05237H17.052V14.3614H23.94V8.05237Z" fill="#0374DF"/>
<path d="M13.692 17.765V20.7535H10.164V17.765H13.692ZM15.372 16.1047H8.48401V22.4138H15.372V16.1047Z" fill="#0374DF"/>
<path d="M22.26 1.66027V4.64875H18.732V1.66027H22.26ZM23.94 0H17.052V6.30902H23.94V0Z" fill="#0374DF"/>
<path d="M5.124 17.765V20.7535H1.68V17.765H5.124ZM6.804 16.1047H0V22.4138H6.804V16.1047Z" fill="#0374DF"/>
<path d="M5.124 9.71264V12.7011H1.68V9.71264H5.124ZM6.804 8.05237H0V14.3614H6.804V8.05237Z" fill="#0374DF"/>
<path d="M5.124 1.66027V4.64875H1.68V1.66027H5.124ZM6.804 0H0V6.30902H6.804V0Z" fill="#0374DF"/>
</svg>
