<svg width="363" height="836" viewBox="0 0 363 836" fill="none" xmlns="http://www.w3.org/2000/svg">
<path d="M0 0H363V836L179 610.5L0 836V0Z" fill="#FD9800"/>
<path d="M141.9 118.4H161.1L182.22 148.352L203.34 118.4H222.796L192.716 161.408L225.228 208H205.516L182.22 175.36L159.052 208H139.852L172.236 162.048L141.9 118.4ZM141.047 349V259.4H157.431V323.016L205.559 259.4H221.047V349H204.663V285.512L156.535 349H141.047ZM172.673 490V410.384L176.641 414.48H143.105V400.4H218.881V414.48H185.345L189.185 410.384V490H172.673Z" fill="white"/>
</svg>
