<svg width="668" height="668" viewBox="0 0 668 668" fill="none" xmlns="http://www.w3.org/2000/svg">
<g clip-path="url(#clip0_80_522)">
<path d="M124 434C68.459 455.177 34 484.683 34 517.323C34 581.763 168.315 634 334 634C499.687 634 634 581.763 634 517.323C634 484.683 599.54 455.177 544 434M334 234H334.333M534 234C534 369.457 384 434 334 534C284 434 134 369.457 134 234C134 123.543 223.543 34 334 34C444.457 34 534 123.543 534 234ZM367.333 234C367.333 252.409 352.41 267.333 334 267.333C315.59 267.333 300.667 252.409 300.667 234C300.667 215.591 315.59 200.667 334 200.667C352.41 200.667 367.333 215.591 367.333 234Z" stroke="#FD9800" stroke-width="66.6667" stroke-linecap="round" stroke-linejoin="round"/>
</g>
<defs>
<clipPath id="clip0_80_522">
<rect width="668" height="668" fill="white"/>
</clipPath>
</defs>
</svg>
