<svg width="66" height="46" viewBox="0 0 66 46" fill="none" xmlns="http://www.w3.org/2000/svg">
<path d="M61.5238 45.0487H0V5.8125H61.5238V45.0487ZM1.98464 42.1423H59.5392V8.71889H1.98464V42.1423Z" fill="#0374DF"/>
<path d="M65.4932 37.783H63.5085V2.90639H4.96167V0H65.4932V37.783Z" fill="#0374DF"/>
<path d="M30.3028 33.4069C26.58 33.4069 23.4602 30.0033 23.4602 25.8634C23.4602 21.7235 26.4789 18.3198 30.3028 18.3198C34.1267 18.3198 37.1453 21.7235 37.1453 25.8634C37.0443 30.0033 34.0256 33.4069 30.3028 33.4069ZM30.3028 20.1593C27.6867 20.1593 25.4726 22.7354 25.4726 25.8628C25.4726 28.9909 27.5855 31.5664 30.3028 31.5664C33.0193 31.5664 35.1329 28.9902 35.1329 25.8628C35.1323 22.7353 32.9189 20.1593 30.3028 20.1593Z" fill="#0374DF"/>
<path d="M3.96924 11.626H9.92315V14.5324H3.96924V11.626Z" fill="#0374DF"/>
<path d="M3.96924 36.3296H9.92315V39.236H3.96924V36.3296Z" fill="#0374DF"/>
<path d="M51.6006 11.626H56.5622V14.5324H51.6006V11.626Z" fill="#0374DF"/>
<path d="M51.6006 36.3296H56.5622V39.236H51.6006V36.3296Z" fill="#0374DF"/>
<circle cx="49.5" cy="32.5" r="12.5" fill="#E0DFDF"/>
<line x1="45.5" y1="32.5" x2="53.5" y2="32.5" stroke="#359CFD" stroke-width="3" stroke-linecap="round"/>
<line x1="49.5" y1="36.5" x2="49.5" y2="28.5" stroke="#359CFD" stroke-width="3" stroke-linecap="round"/>
</svg>
