<svg width="62" height="62" viewBox="0 0 62 62" fill="none" xmlns="http://www.w3.org/2000/svg">
<path d="M29.7272 59.4255V52.201C29.8479 52.1715 29.9655 52.1262 30.0712 52.0474L36.7544 47.071L38.2452 44.5007L38.0817 44.0018L38.4899 44.0784L41.2396 39.337L42.0064 38.0157C41.4604 37.8925 41.136 37.8415 41.136 37.8415C37.662 37.2339 35.8811 34.1839 35.1276 32.4193C37.7758 29.4986 39.6247 25.6938 40.6409 21.9866C40.6696 21.8826 40.6931 21.7769 40.7196 21.6721H40.9576C42.0025 21.6721 42.7636 21.3071 42.6576 20.2793L42.5027 17.8343C42.3974 16.8198 42.4663 15.9739 41.6371 15.9739C41.6273 15.9739 41.6174 15.9743 41.6071 15.9743H41.2798C41.1716 15.9029 41.0487 15.8541 40.9161 15.831C40.991 14.7763 41.2216 7.91928 34.8474 3.40811C34.8474 3.40811 33.743 0.555366 31.6361 0.0547698L31.6443 0H23.018L23.0266 0.0547698C20.9204 0.555399 19.8153 3.40811 19.8153 3.40811C13.4411 7.91939 13.6712 14.7761 13.747 15.8321C13.6144 15.8552 13.4911 15.9035 13.3829 15.9754H13.0564C12.1946 15.9754 12.2674 16.8085 12.1613 17.8351L12.0059 20.28C11.8994 21.3078 12.6602 21.6728 13.706 21.6728H13.8391C14.6157 25.6851 16.4795 29.7316 19.0345 32.6487C19.1355 32.7638 19.2403 32.8742 19.3452 32.9846C18.4757 34.7714 16.7222 37.2959 13.5952 37.8424C13.5952 37.8424 0.714446 39.8582 0.0867837 49.4536C0.0867837 49.4536 -0.21916 51.7291 0.431231 57.7093C0.65031 59.7199 2.56079 61.3434 4.63613 61.3434H32.9773C32.4099 60.7996 31.9833 60.1423 31.7206 59.4265L29.7272 59.4255ZM36.8447 41.8192C36.5106 41.7554 36.1704 41.8748 35.947 42.129C35.7237 42.3836 35.6518 42.7375 35.7566 43.0592L36.3788 44.9603L29.7272 49.9131V45.1742L37.5935 38.4709C38.231 38.8821 38.9465 39.2253 39.7449 39.4701L38.7633 42.1794L36.8447 41.8192ZM29.4131 1.9172L29.141 3.70796C29.1277 3.75289 29.0481 3.8252 29.0152 3.83418L25.661 3.83504C25.6143 3.82519 25.5352 3.75331 25.5232 3.71351L25.2494 1.91728L29.4131 1.9172ZM27.331 11.9812C28.1239 11.9812 28.7687 12.626 28.7687 13.4189C28.7687 14.2117 28.1239 14.8566 27.331 14.8566C26.5381 14.8566 25.8933 14.2117 25.8933 13.4189C25.8933 12.626 26.5381 11.9812 27.331 11.9812ZM20.9225 4.97281L21.3957 4.6382L21.6041 4.09778C21.845 3.47349 22.5827 2.2758 23.3186 1.97293L23.628 4.00237C23.7752 4.96811 24.6793 5.75117 25.6473 5.75117H26.3725V10.205C24.9874 10.618 23.9763 11.9 23.9763 13.4189C23.9763 15.2717 25.4782 16.7736 27.331 16.7736C29.1842 16.7736 30.6856 15.2717 30.6856 13.4189C30.6856 11.9 29.6754 10.6176 28.2895 10.205V5.75117H29.0152C29.983 5.75117 30.8872 4.96813 31.0349 4.00237L31.3442 1.97161C32.0485 2.25915 32.7657 3.35882 33.0583 4.09734L33.2667 4.63819L33.7399 4.9728C39.6059 9.12457 39.0252 15.5005 38.9983 15.7603L38.9923 15.815H36.9157C36.3864 15.815 35.9573 16.2442 35.9573 16.7735C35.9573 17.3028 36.3864 17.732 36.9157 17.732H40.555L40.703 19.7555H38.6303L34.8447 21.5659H19.8181L16.0334 19.7555H13.9602L14.0822 17.732H17.7466C18.2759 17.732 18.7051 17.3028 18.7051 16.7735C18.7051 16.2442 18.2759 15.815 17.7466 15.815H15.6705L15.6645 15.7603C15.6568 15.6948 14.9953 9.16861 20.9229 4.9728L20.9225 4.97281ZM15.8199 21.7795L19.3829 23.4834H35.2793L38.6823 21.8562C37.3712 26.3789 34.9511 30.3416 31.9995 32.7677C30.6161 33.9051 28.9371 34.5058 27.1429 34.5058C24.6428 34.5058 22.2128 33.3684 20.4756 31.3857C18.2848 28.8842 16.5946 25.3332 15.8197 21.7796L15.8199 21.7795ZM20.8262 34.2955C22.6944 35.6741 24.9211 36.4225 27.1431 36.4225C29.1495 36.4225 31.1478 35.8046 32.879 34.5022C33.1888 34.3708 33.4934 34.2322 33.787 34.0764C34.2991 35.0756 35.0433 36.2313 36.074 37.2471L28.147 44.0026C27.9335 44.1849 27.8102 44.4514 27.8102 44.7326V59.4262H25.8933V44.7326C25.8933 44.4557 25.7735 44.1917 25.5642 44.0099L18.2417 37.6334C19.4125 36.6022 20.2503 35.3746 20.8262 34.2954V34.2955ZM18.6363 42.1267C18.4121 41.8734 18.0728 41.757 17.7382 41.8212L15.8854 42.1759L14.9321 39.4866C15.5465 39.3026 16.113 39.0608 16.6321 38.7729L23.9764 45.1686V49.3452L18.2205 44.9658L18.8319 43.0544C18.935 42.7322 18.8606 42.3792 18.6364 42.1268L18.6363 42.1267ZM2.3368 57.5017C1.73134 51.9365 1.9855 49.7179 1.98636 49.7089L1.99534 49.6439L1.99962 49.5784C2.43479 42.9307 10.4097 40.5264 13.0489 39.9115L14.3544 43.5923C14.5127 44.039 14.9718 44.3026 15.4382 44.2132L16.5144 44.0073L16.1883 45.0261C16.0646 45.4129 16.1981 45.8353 16.5212 46.0809L23.9764 51.7538V59.4259H4.63605C3.52312 59.4259 2.44909 58.5265 2.33703 57.5017L2.3368 57.5017Z" fill="#8B8B8B"/>
<path d="M52.2397 39.5601L51.194 41.3628C52.033 42.5206 52.6119 43.8972 52.7275 45.536C52.7326 45.8804 52.7587 48.6797 52.3022 53.5221C52.2068 54.5362 51.1695 55.4258 50.0823 55.4258H43.0375L42.1445 56.9649C42.068 57.0976 41.9781 57.2191 41.8904 57.3427H50.0819C52.158 57.3427 54.0215 55.7138 54.2105 53.7014C54.7159 48.3417 54.6431 45.4534 54.6431 45.4534C54.4852 43.0375 53.5494 41.1035 52.2397 39.5601L52.2397 39.5601Z" fill="#8B8B8B"/>
<path d="M57.3586 19.143C56.0856 18.3993 54.6928 18.0454 53.3189 18.0454C50.5483 18.0454 47.8518 19.4827 46.3571 22.0591C44.7842 24.7702 44.9643 28.0195 46.5449 30.4902L33.9588 52.19C33.1463 53.5914 33.6199 55.3889 35.0161 56.2044L36.2801 56.9442C36.7422 57.2142 37.2489 57.343 37.7482 57.343C38.7563 57.343 39.7365 56.8202 40.28 55.8835L52.865 34.1837C53.0109 34.1918 53.1576 34.1957 53.3036 34.1957C56.0737 34.1957 58.769 32.7602 60.2632 30.1843C62.498 26.3311 61.1972 21.3865 57.3578 19.1427L57.3586 19.143ZM58.6059 29.2228C57.5122 31.1077 55.4811 32.2788 53.3044 32.2788C53.1932 32.2788 53.0819 32.2753 52.9707 32.2694L51.7974 32.2052L51.2078 33.2218L38.6228 54.9216C38.4392 55.2374 38.1131 55.4261 37.749 55.4261C37.5723 55.4261 37.4033 55.3799 37.2492 55.2901L35.9835 54.5494C35.4991 54.2665 35.3348 53.6397 35.6177 53.1519L48.2038 31.4521L48.79 30.4418L48.1601 29.4572C46.906 27.4958 46.8508 25.0299 48.0159 23.0209C49.1105 21.1343 51.1425 19.9623 53.3196 19.9623C54.394 19.9623 55.4569 20.2516 56.3919 20.7976C59.316 22.5066 60.3097 26.2861 58.6067 29.2227L58.6059 29.2228Z" fill="#8B8B8B"/>
<path d="M51.6526 22.8379L49.8555 25.953L51.6526 29.0681H55.2468L57.0439 25.953L55.2468 22.8379H51.6526ZM54.1394 27.151H52.7599L52.0689 25.9529L52.7599 24.7547H54.1394L54.8305 25.9529L54.1394 27.151Z" fill="#8B8B8B"/>
<circle cx="47.5149" cy="48.5" r="12.5" fill="#E0DFDF"/>
<line x1="43.5149" y1="48.5" x2="51.5149" y2="48.5" stroke="white" stroke-width="3" stroke-linecap="round"/>
</svg>
