<svg width="57" height="63" viewBox="0 0 57 63" fill="none" xmlns="http://www.w3.org/2000/svg">
<path d="M43.9257 42.9878C44.035 43.1124 44.1443 43.237 44.2535 43.3616C44.7999 43.9847 45.4555 44.3585 46.2203 44.4831C46.2203 44.9815 46.4389 45.4799 46.6574 45.8537C46.876 46.3521 47.2038 46.726 47.5316 46.9752C47.313 47.4736 47.2038 47.972 47.2038 48.4704C47.2038 48.9688 47.313 49.4672 47.5316 49.9656C47.2038 50.2149 46.876 50.7133 46.6574 51.0871C46.4389 51.5855 46.3296 51.9593 46.2203 52.4577C45.4555 52.5823 44.7999 52.9561 44.2535 53.5792C44.1443 53.7038 44.035 53.8284 43.9257 53.953C43.4886 53.7038 43.0516 53.5792 42.6145 53.5792C42.1774 53.5792 41.7404 53.7038 41.3033 53.953C41.194 53.8284 41.0848 53.7038 40.9755 53.5792C40.4291 52.9561 39.7735 52.5823 39.0087 52.4577C39.0087 51.9593 38.7901 51.4609 38.5716 51.0871C38.3531 50.5887 38.0253 50.2149 37.6974 49.9656C37.916 49.4672 38.0252 48.9688 38.0252 48.4704C38.0252 47.972 37.916 47.4736 37.6974 46.9752C38.0253 46.726 38.3531 46.2275 38.5716 45.8537C38.7901 45.3553 38.8994 44.9815 39.0087 44.4831C39.7735 44.3585 40.4291 43.9847 40.9755 43.3616C41.0848 43.237 41.194 43.1124 41.3033 42.9878C41.7404 43.237 42.1774 43.3616 42.6145 43.3616C43.0516 43.3616 43.4886 43.237 43.9257 42.9878ZM44.4721 39.6235C44.1443 39.6235 43.8165 39.8727 43.5979 40.2466C43.3794 40.6204 43.0516 40.8696 42.7238 40.8696C42.396 40.8696 41.9589 40.6204 41.8496 40.2466C41.6311 39.8727 41.3033 39.6235 40.9755 39.6235C40.4291 39.6235 39.8828 40.122 39.8828 40.8696C39.8828 41.6172 39.3365 42.1156 38.7901 42.1156C38.5716 42.1156 38.4623 42.1156 38.2438 41.991C38.0253 41.8664 37.916 41.8664 37.6974 41.8664C36.9326 41.8664 36.3862 42.8632 36.8233 43.7355C37.2604 44.4831 36.714 45.4799 35.9492 45.4799C34.8565 45.4799 34.5287 47.0998 35.4028 47.7228C36.1677 48.2212 36.1677 49.3426 35.4028 49.841C34.4194 50.4641 34.8565 52.0839 35.9492 52.0839C36.714 52.0839 37.2604 53.0807 36.8233 53.8284C36.3862 54.7006 36.9326 55.6974 37.6974 55.6974C37.916 55.6974 38.0253 55.6974 38.2438 55.5728C38.4623 55.4482 38.5716 55.4482 38.7901 55.4482C39.3365 55.4482 39.8828 55.9466 39.8828 56.6943C39.8828 57.4419 40.4291 57.9403 40.9755 57.9403C41.3033 57.9403 41.6311 57.6911 41.8496 57.3173C42.0682 56.9435 42.396 56.6943 42.7238 56.6943C43.0516 56.6943 43.4886 56.9435 43.5979 57.3173C43.8165 57.6911 44.1443 57.9403 44.4721 57.9403C45.0184 57.9403 45.5647 57.4419 45.5647 56.6943C45.5647 55.9466 46.1111 55.4482 46.6574 55.4482C46.876 55.4482 46.9852 55.4482 47.2038 55.5728C47.4223 55.6974 47.5316 55.6974 47.7501 55.6974C48.515 55.6974 49.0613 54.7006 48.6242 53.8284C48.1872 53.0807 48.7335 52.0839 49.4984 52.0839C50.5911 52.0839 50.9189 50.4641 50.0447 49.841C49.2798 49.3426 49.2798 48.2212 50.0447 47.7228C51.0281 47.0998 50.5911 45.4799 49.4984 45.4799C48.7335 45.4799 48.1872 44.4831 48.6242 43.7355C49.0613 42.8632 48.515 41.8664 47.7501 41.8664C47.5316 41.8664 47.4223 41.8664 47.2038 41.991C46.9852 42.1156 46.876 42.1156 46.6574 42.1156C46.1111 42.1156 45.5647 41.6172 45.5647 40.8696C45.4555 40.122 45.0184 39.6235 44.4721 39.6235Z" fill="#8B8B8B"/>
<path d="M40.1014 6.22998H6.55615V8.72206H40.1014V6.22998Z" fill="#8B8B8B"/>
<path d="M40.1014 11.2144H6.55615V13.7064H40.1014V11.2144Z" fill="#8B8B8B"/>
<path d="M40.1014 16.1982H6.55615V18.6903H40.1014V16.1982Z" fill="#8B8B8B"/>
<path d="M40.1014 21.1826H6.55615V23.6747H40.1014V21.1826Z" fill="#8B8B8B"/>
<path d="M40.1014 26.167H6.55615V28.6591H40.1014V26.167Z" fill="#8B8B8B"/>
<path d="M27.5356 31.1509H6.55615V33.643H27.5356V31.1509Z" fill="#8B8B8B"/>
<path d="M42.6144 37.3807C48.0778 37.3807 52.4486 42.3649 52.4486 48.5951C52.4486 54.8253 48.0778 59.8094 42.6144 59.8094C37.151 59.8094 32.7803 54.8253 32.7803 48.5951C32.7803 42.3649 37.151 37.3807 42.6144 37.3807ZM42.6144 34.8887C35.9491 34.8887 30.595 40.9943 30.595 48.5951C30.595 56.1959 35.9491 62.3015 42.6144 62.3015C49.2798 62.3015 54.6339 56.1959 54.6339 48.5951C54.6339 40.9943 49.2798 34.8887 42.6144 34.8887Z" fill="#8B8B8B"/>
<path d="M27.5355 52.3336H3.27804C2.7317 52.3336 2.18536 51.7106 2.18536 51.0875V3.73811C2.18536 3.11509 2.7317 2.49207 3.27804 2.49207H43.3794C43.9257 2.49207 44.472 3.11509 44.472 3.73811V31.1509H46.6574V3.73811C46.6574 1.61985 45.2369 0 43.3794 0H3.27804C1.42048 0 0 1.61985 0 3.73811V51.0875C0 53.0812 1.42048 54.8256 3.27804 54.8256H27.5355V52.3336Z" fill="#8B8B8B"/>
<path d="M12.6752 50.3398L6.55615 43.362L8.85078 40.7453L12.6752 45.1064L20.2146 36.5088L22.5093 39.2501L12.6752 50.3398Z" fill="#8B8B8B"/>
<circle cx="44.5" cy="49.5" r="12.5" fill="#E0DFDF"/>
<line x1="40.5" y1="49.5" x2="48.5" y2="49.5" stroke="white" stroke-width="3" stroke-linecap="round"/>
</svg>
