<svg width="66" height="46" viewBox="0 0 66 46" fill="none" xmlns="http://www.w3.org/2000/svg">
<g clip-path="url(#clip0_87_503)">
<path d="M61.5238 45.0487H0V5.8125H61.5238V45.0487ZM1.98464 42.1423H59.5392V8.71889H1.98464V42.1423Z" fill="#FD9800"/>
<path d="M65.4934 37.783H63.5087V2.90639H4.96191V0H65.4934V37.783Z" fill="#FD9800"/>
<path d="M30.3026 33.4069C26.5798 33.4069 23.46 30.0033 23.46 25.8634C23.46 21.7235 26.4787 18.3198 30.3026 18.3198C34.1265 18.3198 37.1451 21.7235 37.1451 25.8634C37.0441 30.0033 34.0254 33.4069 30.3026 33.4069ZM30.3026 20.1593C27.6865 20.1593 25.4724 22.7354 25.4724 25.8628C25.4724 28.9909 27.5853 31.5664 30.3026 31.5664C33.0191 31.5664 35.1327 28.9902 35.1327 25.8628C35.1321 22.7353 32.9187 20.1593 30.3026 20.1593Z" fill="#FD9800"/>
<path d="M3.96924 11.626H9.92315V14.5324H3.96924V11.626Z" fill="#FD9800"/>
<path d="M3.96924 36.3296H9.92315V39.236H3.96924V36.3296Z" fill="#FD9800"/>
<path d="M51.6006 11.626H56.5622V14.5324H51.6006V11.626Z" fill="#FD9800"/>
<path d="M51.6006 36.3296H56.5622V39.236H51.6006V36.3296Z" fill="#FD9800"/>
<path d="M49.5 45C56.4036 45 62 39.4036 62 32.5C62 25.5964 56.4036 20 49.5 20C42.5964 20 37 25.5964 37 32.5C37 39.4036 42.5964 45 49.5 45Z" fill="#E0DFDF"/>
<path d="M45.5 32.5H53.5" stroke="#FD9800" stroke-width="3" stroke-linecap="round"/>
<path d="M49.5 36.5V28.5" stroke="#FD9800" stroke-width="3" stroke-linecap="round"/>
</g>
<defs>
<clipPath id="clip0_87_503">
<rect width="66" height="46" fill="white"/>
</clipPath>
</defs>
</svg>
