<svg width="63" height="62" viewBox="0 0 63 62" fill="none" xmlns="http://www.w3.org/2000/svg">
<g clip-path="url(#clip0_87_521)">
<path d="M30.3856 59.4255V52.201C30.5063 52.1715 30.624 52.1262 30.7297 52.0474L37.4129 47.071L38.9036 44.5007L38.7402 44.0018L39.1484 44.0784L41.898 39.337L42.6648 38.0157C42.1188 37.8925 41.7945 37.8415 41.7945 37.8415C38.3204 37.2339 36.5395 34.1839 35.786 32.4193C38.4342 29.4986 40.2832 25.6938 41.2994 21.9866C41.328 21.8826 41.3516 21.7769 41.3781 21.6721H41.616C42.6609 21.6721 43.4221 21.3071 43.3161 20.2793L43.1612 17.8343C43.0559 16.8198 43.1248 15.9739 42.2955 15.9739C42.2857 15.9739 42.2759 15.9743 42.2656 15.9743H41.9383C41.83 15.9029 41.7072 15.8541 41.5745 15.831C41.6494 14.7763 41.8801 7.91928 35.5058 3.40811C35.5058 3.40811 34.4015 0.555366 32.2946 0.0547698L32.3027 0H23.6765L23.685 0.0547698C21.5789 0.555399 20.4737 3.40811 20.4737 3.40811C14.0995 7.91939 14.3297 14.7761 14.4055 15.8321C14.2728 15.8552 14.1496 15.9035 14.0413 15.9754H13.7149C12.8531 15.9754 12.9258 16.8085 12.8197 17.8351L12.6644 20.28C12.5578 21.3078 13.3186 21.6728 14.3644 21.6728H14.4975C15.2741 25.6851 17.138 29.7316 19.693 32.6487C19.794 32.7638 19.8988 32.8742 20.0036 32.9846C19.1341 34.7714 17.3807 37.2959 14.2537 37.8424C14.2537 37.8424 1.37289 39.8582 0.745231 49.4536C0.745231 49.4536 0.439287 51.7291 1.08968 57.7093C1.30876 59.7199 3.21924 61.3434 5.29458 61.3434H33.6358C33.0684 60.7996 32.6418 60.1423 32.379 59.4265L30.3856 59.4255ZM37.5032 41.8192C37.169 41.7554 36.8288 41.8748 36.6055 42.129C36.3821 42.3836 36.3102 42.7375 36.4151 43.0592L37.0372 44.9603L30.3856 49.9131V45.1742L38.2519 38.4709C38.8895 38.8821 39.6049 39.2253 40.4034 39.4701L39.4218 42.1794L37.5032 41.8192ZM30.0716 1.9172L29.7994 3.70796C29.7862 3.75289 29.7066 3.8252 29.6736 3.83418L26.3194 3.83504C26.2728 3.82519 26.1936 3.75331 26.1817 3.71351L25.9078 1.91728L30.0716 1.9172ZM27.9895 11.9812C28.7823 11.9812 29.4272 12.626 29.4272 13.4189C29.4272 14.2117 28.7823 14.8566 27.9895 14.8566C27.1966 14.8566 26.5517 14.2117 26.5517 13.4189C26.5517 12.626 27.1966 11.9812 27.9895 11.9812ZM21.5809 4.97281L22.0542 4.6382L22.2626 4.09778C22.5035 3.47349 23.2411 2.2758 23.9771 1.97293L24.2864 4.00237C24.4336 4.96811 25.3378 5.75117 26.3057 5.75117H27.031V10.205C25.6458 10.618 24.6348 11.9 24.6348 13.4189C24.6348 15.2717 26.1367 16.7736 27.9894 16.7736C29.8426 16.7736 31.3441 15.2717 31.3441 13.4189C31.3441 11.9 30.3338 10.6176 28.9479 10.205V5.75117H29.6736C30.6415 5.75117 31.5456 4.96813 31.6933 4.00237L32.0027 1.97161C32.707 2.25915 33.4242 3.35882 33.7167 4.09734L33.9251 4.63819L34.3984 4.9728C40.2643 9.12457 39.6837 15.5005 39.6567 15.7603L39.6507 15.815H37.5742C37.0449 15.815 36.6157 16.2442 36.6157 16.7735C36.6157 17.3028 37.0449 17.732 37.5742 17.732H41.2134L41.3615 19.7555H39.2888L35.5032 21.5659H20.4765L16.6918 19.7555H14.6187L14.7406 17.732H18.4051C18.9343 17.732 19.3635 17.3028 19.3635 16.7735C19.3635 16.2442 18.9343 15.815 18.4051 15.815H16.3289L16.323 15.7603C16.3153 15.6948 15.6533 9.16862 21.5809 4.97281ZM16.4784 21.7795L20.0414 23.4834H35.9378L39.3407 21.8562C38.0296 26.3789 35.6096 30.3416 32.6579 32.7677C31.2745 33.9051 29.5955 34.5058 27.8014 34.5058C25.3012 34.5058 22.8712 33.3684 21.134 31.3857C18.9432 28.8842 17.2532 25.3331 16.4784 21.7795ZM21.4847 34.2955C23.3529 35.6741 25.5796 36.4225 27.8016 36.4225C29.8079 36.4225 31.8063 35.8046 33.5374 34.5022C33.8472 34.3708 34.1519 34.2322 34.4454 34.0764C34.9576 35.0756 35.7017 36.2313 36.7325 37.2471L28.8054 44.0026C28.5919 44.1849 28.4687 44.4514 28.4687 44.7326V59.4262H26.5517V44.7326C26.5517 44.4557 26.4319 44.1917 26.2227 44.0099L18.9002 37.6334C20.0709 36.6022 20.9087 35.3747 21.4847 34.2955ZM19.2947 42.1267C19.0705 41.8734 18.7312 41.757 18.3966 41.8212L16.5439 42.1759L15.5905 39.4866C16.205 39.3026 16.7715 39.0608 17.2906 38.7729L24.6349 45.1686V49.3452L18.8789 44.9658L19.4903 43.0544C19.5935 42.7322 19.5189 42.3791 19.2947 42.1267ZM2.99525 57.5017C2.38979 51.9365 2.64395 49.7179 2.64481 49.7089L2.65379 49.6439L2.65807 49.5784C3.09324 42.9307 11.0682 40.5264 13.7073 39.9115L15.0128 43.5923C15.1711 44.039 15.6303 44.3026 16.0967 44.2132L17.1728 44.0073L16.8468 45.0261C16.7231 45.4129 16.8566 45.8353 17.1797 46.0809L24.6348 51.7538V59.4259H5.29449C4.18157 59.4259 3.1073 58.5265 2.99525 57.5017Z" fill="#FD9800"/>
<path d="M52.8982 39.5601L51.8524 41.3628C52.6915 42.5206 53.2704 43.8972 53.386 45.536C53.3911 45.8804 53.4172 48.6797 52.9606 53.5221C52.8652 54.5362 51.828 55.4258 50.7407 55.4258H43.696L42.803 56.9649C42.7264 57.0976 42.6365 57.2191 42.5488 57.3427H50.7403C52.8164 57.3427 54.6799 55.7138 54.869 53.7014C55.3743 48.3417 55.3016 45.4534 55.3016 45.4534C55.1437 43.0375 54.2079 41.1035 52.8982 39.5601Z" fill="#FD9800"/>
<path d="M58.0172 19.143C56.7443 18.3993 55.3515 18.0454 53.9775 18.0454C51.2069 18.0454 48.5104 19.4827 47.0157 22.0591C45.4429 24.7702 45.6229 28.0195 47.2036 30.4902L34.6175 52.19C33.8049 53.5914 34.2786 55.3889 35.6748 56.2044L36.9388 56.9442C37.4009 57.2142 37.9075 57.343 38.4068 57.343C39.4149 57.343 40.3952 56.8202 40.9386 55.8835L53.5236 34.1837C53.6695 34.1918 53.8163 34.1957 53.9622 34.1957C56.7323 34.1957 59.4277 32.7602 60.9218 30.1843C63.1566 26.3311 61.8566 21.3868 58.0172 19.143ZM59.2646 29.2228C58.1709 31.1077 56.1397 32.2788 53.9631 32.2788C53.8518 32.2788 53.7406 32.2753 53.6293 32.2694L52.456 32.2052L51.8664 33.2218L39.2814 54.9216C39.0978 55.2374 38.7718 55.4261 38.4076 55.4261C38.2309 55.4261 38.0619 55.3799 37.9079 55.2901L36.6421 54.5494C36.1578 54.2665 35.9935 53.6397 36.2763 53.1519L48.8624 31.4521L49.4486 30.4418L48.8188 29.4572C47.5646 27.4958 47.5094 25.0299 48.6746 23.0209C49.7691 21.1343 51.8012 19.9623 53.9783 19.9623C55.0527 19.9623 56.1156 20.2516 57.0505 20.7976C59.9747 22.5066 60.9676 26.2862 59.2646 29.2228Z" fill="#FD9800"/>
<path d="M52.3108 22.8379L50.5137 25.953L52.3108 29.0681H55.905L57.7021 25.953L55.905 22.8379H52.3108ZM54.7977 27.151H53.4182L52.7271 25.9529L53.4182 24.7547H54.7977L55.4887 25.9529L54.7977 27.151Z" fill="#FD9800"/>
<path d="M48.1733 61C55.0769 61 60.6733 55.4036 60.6733 48.5C60.6733 41.5964 55.0769 36 48.1733 36C41.2698 36 35.6733 41.5964 35.6733 48.5C35.6733 55.4036 41.2698 61 48.1733 61Z" fill="#E0DFDF"/>
<path d="M44.1733 48.5H52.1733" stroke="#FD9800" stroke-width="3" stroke-linecap="round"/>
<path d="M48.1733 52.5V44.5" stroke="#FD9800" stroke-width="3" stroke-linecap="round"/>
</g>
<defs>
<clipPath id="clip0_87_521">
<rect width="63" height="62" fill="white"/>
</clipPath>
</defs>
</svg>
