<svg width="66" height="46" viewBox="0 0 66 46" fill="none" xmlns="http://www.w3.org/2000/svg">
<path d="M62.017 45.0487H0.493164V5.8125H62.017V45.0487ZM2.4778 42.1423H60.0323V8.71889H2.4778V42.1423Z" fill="#8B8B8B"/>
<path d="M65.9863 37.783H64.0017V2.90639H5.45483V0H65.9863V37.783Z" fill="#8B8B8B"/>
<path d="M30.7959 33.4069C27.0732 33.4069 23.9534 30.0033 23.9534 25.8634C23.9534 21.7235 26.972 18.3198 30.7959 18.3198C34.6198 18.3198 37.6385 21.7235 37.6385 25.8634C37.5374 30.0033 34.5188 33.4069 30.7959 33.4069ZM30.7959 20.1593C28.1799 20.1593 25.9658 22.7354 25.9658 25.8628C25.9658 28.9909 28.0787 31.5664 30.7959 31.5664C33.5124 31.5664 35.6261 28.9902 35.6261 25.8628C35.6255 22.7353 33.4121 20.1593 30.7959 20.1593Z" fill="#8B8B8B"/>
<path d="M4.4624 11.626H10.4163V14.5324H4.4624V11.626Z" fill="#8B8B8B"/>
<path d="M4.4624 36.3296H10.4163V39.236H4.4624V36.3296Z" fill="#8B8B8B"/>
<path d="M52.0938 11.626H57.0553V14.5324H52.0938V11.626Z" fill="#8B8B8B"/>
<path d="M52.0938 36.3296H57.0553V39.236H52.0938V36.3296Z" fill="#8B8B8B"/>
<circle cx="49.9932" cy="32.5" r="12.5" fill="#E0DFDF"/>
<line x1="45.9932" y1="32.5" x2="53.9932" y2="32.5" stroke="white" stroke-width="3" stroke-linecap="round"/>
</svg>
