<svg width="59" height="57" viewBox="0 0 59 57" fill="none" xmlns="http://www.w3.org/2000/svg">
<path d="M43.9007 47.5033C45.8234 47.5033 47.2938 48.9736 47.2938 50.8964C47.2938 52.8191 45.8234 54.2894 43.9007 54.2894C41.978 54.2894 40.5076 52.8191 40.5076 50.8964C40.5076 48.9736 42.0911 47.5033 43.9007 47.5033ZM43.9007 45.2413C40.7338 45.2413 38.2456 47.7295 38.2456 50.8964C38.2456 54.0632 40.7338 56.5515 43.9007 56.5515C47.0676 56.5515 49.5558 54.0632 49.5558 50.8964C49.5558 47.7295 47.0676 45.2413 43.9007 45.2413Z" fill="#0374DF"/>
<path d="M39.5076 32.9128V33.9128H40.5076H52.9488H55.1417L53.7039 32.2571L46.2392 23.6613L45.9401 23.317H45.4841H40.5076H39.5076V24.317V32.9128ZM55.9074 33.2985V47.6339H52.184C50.8605 44.3282 47.7203 41.9788 43.9007 41.9788C40.2916 41.9788 37.2891 44.0763 35.8525 47.0963V23.055H46.6242L55.9074 33.2985Z" stroke="#0374DF" stroke-width="2"/>
<path d="M16.0777 47.5033C18.0004 47.5033 19.4708 48.9736 19.4708 50.8964C19.4708 52.8191 18.0004 54.2894 16.0777 54.2894C14.155 54.2894 12.6846 52.8191 12.6846 50.8964C12.6846 48.9736 14.2681 47.5033 16.0777 47.5033ZM16.0777 45.2413C12.9108 45.2413 10.4226 47.7295 10.4226 50.8964C10.4226 54.0632 12.9108 56.5515 16.0777 56.5515C19.2446 56.5515 21.7328 54.0632 21.7328 50.8964C21.7328 47.7295 19.2446 45.2413 16.0777 45.2413Z" fill="#0374DF"/>
<path d="M1.35645 47.634V33.9128H31.5905V47.634H24.361C23.0374 44.3282 19.8972 41.9789 16.0776 41.9789C12.258 41.9789 9.11778 44.3282 7.79426 47.634H1.35645Z" stroke="#0374DF" stroke-width="2"/>
<path d="M30.3285 24.2034V28.2751H25.5782V24.2034H30.3285ZM32.5905 21.9414H23.3162V30.5371H32.5905V21.9414Z" fill="#0374DF"/>
<path d="M18.7921 2.26204V6.33371H14.0418V2.26204H18.7921ZM21.0541 0H11.7798V8.59574H21.0541V0Z" fill="#0374DF"/>
<path d="M18.7921 13.2332V17.3049H14.0418V13.2332H18.7921ZM21.0541 10.9712H11.7798V19.5669H21.0541V10.9712Z" fill="#0374DF"/>
<path d="M30.3285 13.2332V17.3049H25.5782V13.2332H30.3285ZM32.5905 10.9712H23.3162V19.5669H32.5905V10.9712Z" fill="#0374DF"/>
<path d="M18.7921 24.2034V28.2751H14.0418V24.2034H18.7921ZM21.0541 21.9414H11.7798V30.5371H21.0541V21.9414Z" fill="#0374DF"/>
<path d="M30.3285 2.26204V6.33371H25.5782V2.26204H30.3285ZM32.5905 0H23.3162V8.59574H32.5905V0Z" fill="#0374DF"/>
<path d="M7.25566 24.2034V28.2751H2.61848V24.2034H7.25566ZM9.5177 21.9414H0.356445V30.5371H9.5177V21.9414Z" fill="#0374DF"/>
<path d="M7.25566 13.2332V17.3049H2.61848V13.2332H7.25566ZM9.5177 10.9712H0.356445V19.5669H9.5177V10.9712Z" fill="#0374DF"/>
<path d="M7.25566 2.26204V6.33371H2.61848V2.26204H7.25566ZM9.5177 0H0.356445V8.59574H9.5177V0Z" fill="#0374DF"/>
<circle cx="45.8564" cy="44.5" r="12.5" fill="#E0DFDF"/>
<line x1="41.8564" y1="44.5" x2="49.8564" y2="44.5" stroke="#359CFD" stroke-width="3" stroke-linecap="round"/>
<line x1="45.8564" y1="48.5" x2="45.8564" y2="40.5" stroke="#359CFD" stroke-width="3" stroke-linecap="round"/>
</svg>
