<svg width="63" height="62" viewBox="0 0 63 62" fill="none" xmlns="http://www.w3.org/2000/svg">
<g clip-path="url(#clip0_87_514)">
<path d="M31.658 60.0934C47.9072 60.0934 61.0797 46.9209 61.0797 30.6717C61.0797 14.4225 47.9072 1.25 31.658 1.25C15.4089 1.25 2.23633 14.4225 2.23633 30.6717C2.23633 46.9209 15.4089 60.0934 31.658 60.0934Z" stroke="#FD9800" stroke-width="2.5"/>
<path d="M30.9912 14.6689V29.4218" stroke="#FD9800" stroke-width="2.5" stroke-linecap="round"/>
<path d="M45.744 30.0048H30.9912" stroke="#FD9800" stroke-width="2.5" stroke-linecap="round"/>
<path d="M48.4863 61C55.3899 61 60.9863 55.4036 60.9863 48.5C60.9863 41.5964 55.3899 36 48.4863 36C41.5828 36 35.9863 41.5964 35.9863 48.5C35.9863 55.4036 41.5828 61 48.4863 61Z" fill="#E0DFDF"/>
<path d="M44.4863 48.5H52.4863" stroke="#FD9800" stroke-width="3" stroke-linecap="round"/>
<path d="M48.4863 52.5V44.5" stroke="#FD9800" stroke-width="3" stroke-linecap="round"/>
</g>
<defs>
<clipPath id="clip0_87_514">
<rect width="63" height="62" fill="white"/>
</clipPath>
</defs>
</svg>
