<svg width="89" height="89" viewBox="0 0 89 89" fill="none" xmlns="http://www.w3.org/2000/svg">
<g clip-path="url(#clip0_71_372)">
<path d="M77.8494 88.5889H77.2743C10.7893 84.7647 1.34941 28.654 0.0298574 11.5297C-0.176378 8.84517 0.691944 6.18861 2.44383 4.14438C4.19571 2.10015 6.68768 0.835681 9.37159 0.629094C9.64001 0.608789 9.90956 0.598636 10.1802 0.598636H28.0111C29.3663 0.597324 30.6908 1.00309 31.8128 1.76336C32.9349 2.52364 33.8029 3.6034 34.3043 4.86278L39.4472 17.5198C39.9423 18.7502 40.0652 20.0989 39.8006 21.3985C39.5359 22.6981 38.8953 23.8912 37.9585 24.8298L30.7517 32.1059C31.8728 38.5066 34.9349 44.4076 39.5227 49.0085C44.1105 53.6095 50.0021 56.6879 56.3983 57.8261L63.7404 50.55C64.6928 49.6233 65.897 48.9975 67.2026 48.7507C68.5083 48.504 69.8577 48.6472 71.0825 49.1625L83.8382 54.2727C85.0783 54.7901 86.1363 55.665 86.8775 56.7861C87.6186 57.9071 88.0093 59.2234 87.9998 60.5674V78.4361C87.9998 81.1288 86.9304 83.7112 85.0269 85.6152C83.1233 87.5192 80.5415 88.5889 77.8494 88.5889ZM10.1802 7.36712C9.73592 7.36578 9.29568 7.45199 8.88467 7.62084C8.47366 7.78968 8.09992 8.03784 7.78479 8.35115C7.46967 8.66447 7.21933 9.0368 7.04806 9.44688C6.87679 9.85697 6.78796 10.2968 6.78663 10.7412C6.78663 10.836 6.79001 10.9296 6.79678 11.0221C8.35317 31.0568 18.3344 78.4361 77.6464 81.8204C78.542 81.8741 79.4221 81.5698 80.0934 80.9745C80.7647 80.3792 81.1721 79.5417 81.2261 78.646L81.2329 78.4361V60.5674L68.4773 55.4572L58.7667 65.1022L57.1427 64.8992C27.7066 61.2104 23.7141 31.7675 23.7141 31.4629L23.5111 29.8385L33.1201 20.1257L28.0449 7.36712H10.1802Z" fill="#FD9800"/>
<path d="M89 19C89 23.5087 87.1563 27.8327 83.8744 31.0208C80.5925 34.2089 76.1413 36 71.5 36C66.8587 36 62.4075 34.2089 59.1256 31.0208C55.8437 27.8327 54 23.5087 54 19C54 14.4913 55.8437 10.1673 59.1256 6.97919C62.4075 3.79107 66.8587 2 71.5 2C76.1413 2 80.5925 3.79107 83.8744 6.97919C87.1563 10.1673 89 14.4913 89 19ZM66.0225 14.8201H67.8272C68.1291 14.8201 68.3697 14.58 68.4091 14.2889C68.6059 12.8949 69.5903 11.8791 71.3447 11.8791C72.8453 11.8791 74.2191 12.608 74.2191 14.3611C74.2191 15.7105 73.4009 16.331 72.1081 17.2745C70.6359 18.3136 69.47 19.527 69.5531 21.4969L69.5597 21.958C69.562 22.0974 69.6206 22.2304 69.7229 22.3282C69.8252 22.426 69.963 22.4808 70.1066 22.4807H71.8806C72.0257 22.4807 72.1648 22.4248 72.2673 22.3251C72.3699 22.2255 72.4275 22.0904 72.4275 21.9495V21.7264C72.4275 20.2006 73.0247 19.7565 74.6369 18.5686C75.9691 17.5848 77.3581 16.4925 77.3581 14.1996C77.3581 10.9888 74.5669 9.4375 71.5109 9.4375C68.7394 9.4375 65.7031 10.6912 65.4953 14.2952C65.4923 14.3639 65.5038 14.4324 65.5291 14.4965C65.5543 14.5607 65.5928 14.6191 65.6422 14.6683C65.6916 14.7175 65.7508 14.7563 65.8162 14.7824C65.8816 14.8085 65.9518 14.8213 66.0225 14.8201ZM71.1084 28.5115C72.4428 28.5115 73.3594 27.6742 73.3594 26.5416C73.3594 25.3686 72.4406 24.5441 71.1084 24.5441C69.8309 24.5441 68.9012 25.3686 68.9012 26.5416C68.9012 27.6742 69.8309 28.5115 71.1106 28.5115H71.1084Z" fill="#FD9800" fill-opacity="0.43"/>
</g>
<defs>
<clipPath id="clip0_71_372">
<rect width="89" height="89" fill="white"/>
</clipPath>
</defs>
</svg>
