<svg width="33" height="32" viewBox="0 0 33 32" fill="none" xmlns="http://www.w3.org/2000/svg">
                                <ellipse cx="16.5389" cy="16.0759" rx="15.6168" ry="14.5398" fill="#F9F9F9"></ellipse>
                                <path fill-rule="evenodd" clip-rule="evenodd" d="M32.1557 16.0767C32.1557 24.7011 25.1633 31.6935 16.5389 31.6935C7.91456 31.6935 0.92215 24.7011 0.92215 16.0767C0.92215 7.45237 7.91456 0.459961 16.5389 0.459961C25.1633 0.459961 32.1557 7.45237 32.1557 16.0767ZM17.0985 11.989C15.5798 12.6202 12.5436 13.9281 7.99134 15.9115C7.25215 16.2056 6.86433 16.4932 6.82919 16.7743C6.76933 17.2506 7.36537 17.438 8.17484 17.6918C8.28546 17.7269 8.39998 17.762 8.51711 17.8011C9.31486 18.0601 10.3872 18.3633 10.9442 18.375C11.4505 18.3854 12.0153 18.1772 12.6386 17.7503C16.8916 14.8781 19.0871 13.4271 19.225 13.3959C19.3226 13.3737 19.458 13.3451 19.5491 13.4271C19.6401 13.5078 19.631 13.6613 19.6219 13.703C19.5621 13.9541 17.2274 16.1262 16.0171 17.2506C15.6397 17.6007 15.3729 17.8492 15.3182 17.9065C15.1959 18.0327 15.0709 18.1538 14.9512 18.2696C14.2094 18.9827 13.655 19.5189 14.9824 20.3935C15.6201 20.8138 16.1303 21.1613 16.6391 21.5075C17.1948 21.8862 17.7492 22.2636 18.4676 22.7347C18.6498 22.8544 18.8242 22.978 18.9947 23.0991C19.6414 23.5611 20.2232 23.9749 20.9415 23.9098C21.358 23.8708 21.7901 23.4791 22.0087 22.3091C22.5253 19.5424 23.543 13.5507 23.7786 11.0807C23.7929 10.8756 23.7842 10.6695 23.7526 10.4664C23.7336 10.3023 23.6537 10.1514 23.5287 10.0435C23.3426 9.89119 23.0537 9.85865 22.9236 9.86126C22.3366 9.87167 21.4361 10.1853 17.0985 11.989Z" fill="#7C7C7C"></path></svg>