<svg width="23" height="23" viewBox="0 0 23 23" fill="none" xmlns="http://www.w3.org/2000/svg">
                        <ellipse cx="11.2307" cy="11.9233" rx="11.0769" ry="10.313" fill="#565656"></ellipse>
                        <path fill-rule="evenodd" clip-rule="evenodd" d="M22.3077 11.9236C22.3077 18.0408 17.348 23.0005 11.2307 23.0005C5.1135 23.0005 0.153809 18.0408 0.153809 11.9236C0.153809 5.80637 5.1135 0.84668 11.2307 0.84668C17.348 0.84668 22.3077 5.80637 22.3077 11.9236ZM11.6277 9.02422C10.5504 9.47191 8.39689 10.3996 5.16796 11.8064C4.64365 12.015 4.36858 12.219 4.34365 12.4184C4.30119 12.7562 4.72396 12.8891 5.29812 13.0691C5.37658 13.0941 5.45781 13.119 5.54089 13.1467C6.10673 13.3304 6.86735 13.5454 7.26242 13.5538C7.6215 13.5611 8.02212 13.4134 8.46427 13.1107C11.4809 11.0734 13.0381 10.0442 13.136 10.0221C13.2052 10.0064 13.3012 9.98606 13.3658 10.0442C13.4304 10.1014 13.424 10.2104 13.4175 10.2399C13.375 10.4181 11.719 11.9587 10.8606 12.7562C10.5929 13.0045 10.4037 13.1808 10.3649 13.2214C10.2781 13.311 10.1895 13.3968 10.1046 13.479C9.57842 13.9848 9.18519 14.3651 10.1267 14.9854C10.579 15.2836 10.9409 15.5301 11.3018 15.7756C11.696 16.0442 12.0892 16.3119 12.5987 16.6461C12.728 16.731 12.8517 16.8187 12.9726 16.9045C13.4313 17.2322 13.844 17.5258 14.3535 17.4796C14.6489 17.4519 14.9553 17.1741 15.1104 16.3442C15.4769 14.3818 16.1987 10.1319 16.3658 8.37991C16.376 8.23445 16.3698 8.0883 16.3473 7.94422C16.3339 7.82785 16.2773 7.72077 16.1886 7.64422C16.0566 7.53622 15.8517 7.51314 15.7593 7.51499C15.343 7.52237 14.7043 7.74483 11.6277 9.02422Z" fill="#F4F4F4"></path>
                    </svg>