<svg width="33" height="32" viewBox="0 0 33 32" fill="none" xmlns="http://www.w3.org/2000/svg">
                        <circle cx="16.4611" cy="16.0767" r="15.6168" fill="#F9F9F9"></circle>
                        <path d="M16.4611 0.459961C7.83606 0.459961 0.844299 7.45172 0.844299 16.0767C0.844299 24.7017 7.83606 31.6935 16.4611 31.6935C25.0861 31.6935 32.0778 24.7017 32.0778 16.0767C32.0778 7.45172 25.0861 0.459961 16.4611 0.459961ZM22.467 18.0793C22.467 18.0793 23.8481 19.4425 24.1881 20.0753C24.1979 20.0883 24.2028 20.1013 24.206 20.1078C24.3443 20.3404 24.3768 20.521 24.3085 20.656C24.1946 20.8805 23.8042 20.9911 23.6708 21.0009H21.2307C21.0615 21.0009 20.7069 20.957 20.2774 20.6609C19.9472 20.4299 19.6218 20.0509 19.3046 19.6816C18.8312 19.1318 18.4213 18.6567 18.0081 18.6567C17.9556 18.6567 17.9035 18.6649 17.8536 18.6812C17.5412 18.782 17.141 19.2277 17.141 20.4153C17.141 20.7862 16.8482 20.9993 16.6416 20.9993H15.5241C15.1434 20.9993 13.1604 20.8659 11.4035 19.013C9.25295 16.7437 7.31712 12.1921 7.30086 12.1498C7.17885 11.8553 7.431 11.6975 7.70592 11.6975H10.1704C10.499 11.6975 10.6064 11.8976 10.6812 12.0749C10.7691 12.2815 11.0912 13.103 11.6199 14.027C12.4772 15.5334 13.0026 16.1451 13.4239 16.1451C13.5029 16.1441 13.5805 16.124 13.65 16.0865C14.1999 15.7807 14.0974 13.8204 14.073 13.4137C14.073 13.3373 14.0714 12.5369 13.7899 12.153C13.5882 11.8748 13.245 11.7691 13.0368 11.7301C13.121 11.6138 13.2321 11.5195 13.3605 11.4551C13.7379 11.2664 14.4179 11.2388 15.093 11.2388H15.4688C16.2008 11.2485 16.3895 11.2957 16.6547 11.3624C17.1915 11.4909 17.2029 11.8374 17.1557 13.0233C17.141 13.3601 17.1264 13.7407 17.1264 14.1897C17.1264 14.2873 17.1215 14.3914 17.1215 14.502C17.1053 15.1056 17.0857 15.7904 17.5119 16.0718C17.5675 16.1067 17.6318 16.1253 17.6974 16.1255C17.8454 16.1255 18.2912 16.1255 19.4982 14.0547C19.8705 13.3881 20.1939 12.6955 20.4661 11.9822C20.4905 11.9399 20.5621 11.8098 20.6467 11.7593C20.7091 11.7275 20.7783 11.7113 20.8484 11.7122H23.7456C24.0612 11.7122 24.2776 11.7593 24.3183 11.8813C24.3898 12.0749 24.3052 12.6654 22.9827 14.4565L22.3922 15.2357C21.1933 16.8071 21.1933 16.8868 22.467 18.0793Z" fill="#7C7C7C"></path></svg>