<svg width="23" height="23" viewBox="0 0 23 23" fill="none" xmlns="http://www.w3.org/2000/svg">
                        <circle cx="11.3845" cy="11.9236" r="11.0769" fill="#565656"></circle>
                        <path d="M11.3845 0.84668C5.26685 0.84668 0.307617 5.80591 0.307617 11.9236C0.307617 18.0413 5.26685 23.0005 11.3845 23.0005C17.5022 23.0005 22.4615 18.0413 22.4615 11.9236C22.4615 5.80591 17.5022 0.84668 11.3845 0.84668ZM15.6445 13.344C15.6445 13.344 16.6242 14.3109 16.8653 14.7598C16.8722 14.769 16.8757 14.7782 16.878 14.7828C16.9761 14.9478 16.9992 15.0759 16.9507 15.1717C16.8699 15.3309 16.593 15.4094 16.4984 15.4163H14.7676C14.6476 15.4163 14.3961 15.3851 14.0915 15.1751C13.8572 15.0113 13.6265 14.7424 13.4015 14.4805C13.0657 14.0905 12.7749 13.7536 12.4818 13.7536C12.4446 13.7535 12.4076 13.7594 12.3722 13.7709C12.1507 13.8424 11.8668 14.1586 11.8668 15.0009C11.8668 15.264 11.6592 15.4151 11.5126 15.4151H10.7199C10.4499 15.4151 9.04339 15.3205 7.79723 14.0063C6.27185 12.3967 4.89877 9.16822 4.88723 9.13822C4.80069 8.92937 4.97954 8.81745 5.17454 8.81745H6.92262C7.15569 8.81745 7.23185 8.95937 7.28492 9.08514C7.34723 9.23168 7.57569 9.81437 7.95069 10.4698C8.55877 11.5382 8.93146 11.9721 9.23031 11.9721C9.28635 11.9714 9.34138 11.9572 9.39069 11.9305C9.78069 11.7136 9.708 10.3232 9.69069 10.0348C9.69069 9.98053 9.68954 9.41283 9.48992 9.14053C9.34685 8.94322 9.10339 8.86822 8.95569 8.84053C9.01547 8.75804 9.09423 8.69115 9.18531 8.64553C9.453 8.51168 9.93531 8.49206 10.4142 8.49206H10.6807C11.1999 8.49899 11.3338 8.53245 11.5218 8.57976C11.9026 8.67091 11.9107 8.91668 11.8772 9.75783C11.8668 9.99668 11.8565 10.2667 11.8565 10.5851C11.8565 10.6544 11.853 10.7282 11.853 10.8067C11.8415 11.2348 11.8276 11.7205 12.1299 11.9201C12.1694 11.9449 12.2149 11.9581 12.2615 11.9582C12.3665 11.9582 12.6826 11.9582 13.5388 10.4894C13.8028 10.0166 14.0323 9.52531 14.2253 9.01937C14.2426 8.98937 14.2934 8.89706 14.3534 8.86129C14.3977 8.83872 14.4468 8.82724 14.4965 8.82783H16.5515C16.7753 8.82783 16.9288 8.86129 16.9576 8.94783C17.0084 9.08514 16.9484 9.50399 16.0103 10.7744L15.5915 11.3271C14.7411 12.4417 14.7411 12.4982 15.6445 13.344Z" fill="#F4F4F4"></path>
                    </svg>